<svg id="Layer_1" data-name="Layer 1" xmlns="http://www.w3.org/2000/svg" width="553.11" height="225.37" viewBox="0 0 553.11 225.37"><defs><style>.cls-1{fill:#37c5fd;}.cls-2{fill:#fff;}.cls-3{fill:#c3eefe;}.cls-4{fill:#10a7e3;}.cls-5,.cls-6{fill:#00e5ae;}.cls-5{stroke:#37c5fd;}.cls-5,.cls-6,.cls-7{stroke-linecap:round;}.cls-12,.cls-5,.cls-6,.cls-7{stroke-miterlimit:10;}.cls-5,.cls-7{stroke-width:4.44px;}.cls-6{stroke:#10a7e3;stroke-width:7.22px;}.cls-7{fill:#93dbf7;stroke:#c3eefe;}.cls-8{fill:#14bf96;}.cls-9{fill:#ccfbf0;}.cls-10{fill:#568292;}.cls-11{fill:#304752;}.cls-12{fill:#686868;stroke:#333;stroke-width:2.62px;}.cls-13{fill:#b3b3b3;}</style></defs><title>computer flow</title><path class="cls-1" d="M0,75.91H142.11a0,0,0,0,1,0,0V138a4,4,0,0,1-4,4H4a4,4,0,0,1-4-4V75.91a0,0,0,0,1,0,0Z"/><rect class="cls-2" x="6.11" y="83.13" width="9.44" height="9.44" rx="1.11"/><rect class="cls-2" x="18.15" y="83.13" width="9.44" height="9.44" rx="1.11"/><rect class="cls-2" x="30.2" y="83.13" width="9.44" height="9.44" rx="1.11"/><rect class="cls-2" x="42.25" y="83.13" width="9.44" height="9.44" rx="1.11"/><rect class="cls-2" x="54.29" y="83.13" width="9.44" height="9.44" rx="1.11"/><rect class="cls-2" x="66.34" y="83.13" width="9.44" height="9.44" rx="1.11"/><rect class="cls-2" x="78.39" y="83.13" width="9.44" height="9.44" rx="1.11"/><rect class="cls-2" x="90.43" y="83.13" width="9.44" height="9.44" rx="1.11"/><rect class="cls-2" x="102.48" y="83.13" width="9.44" height="9.44" rx="1.11"/><rect class="cls-2" x="114.52" y="83.13" width="9.44" height="9.44" rx="1.11"/><rect class="cls-2" x="126.57" y="83.13" width="9.44" height="9.44" rx="1.11"/><rect class="cls-2" x="18.15" y="95.89" width="9.44" height="9.44" rx="1.11"/><rect class="cls-2" x="30.2" y="95.89" width="9.44" height="9.44" rx="1.11"/><rect class="cls-2" x="42.25" y="95.89" width="9.44" height="9.44" rx="1.11"/><rect class="cls-2" x="54.29" y="95.89" width="9.44" height="9.44" rx="1.11"/><rect class="cls-2" x="66.34" y="95.89" width="9.44" height="9.44" rx="1.11"/><rect class="cls-2" x="78.39" y="95.89" width="9.44" height="9.44" rx="1.11"/><rect class="cls-2" x="90.43" y="95.89" width="9.44" height="9.44" rx="1.11"/><rect class="cls-2" x="102.48" y="95.89" width="9.44" height="9.44" rx="1.11"/><rect class="cls-2" x="114.52" y="95.89" width="9.44" height="9.44" rx="1.11"/><rect class="cls-2" x="6.11" y="108.66" width="9.44" height="9.44" rx="1.11"/><rect class="cls-2" x="18.15" y="108.66" width="9.44" height="9.44" rx="1.11"/><rect class="cls-2" x="30.2" y="108.66" width="9.44" height="9.44" rx="1.11"/><rect class="cls-2" x="42.25" y="108.66" width="9.44" height="9.44" rx="1.11"/><rect class="cls-2" x="54.29" y="108.66" width="9.44" height="9.44" rx="1.11"/><rect class="cls-2" x="66.34" y="108.66" width="9.44" height="9.44" rx="1.11"/><rect class="cls-2" x="78.39" y="108.66" width="9.44" height="9.44" rx="1.11"/><rect class="cls-2" x="90.43" y="108.66" width="9.44" height="9.44" rx="1.11"/><rect class="cls-2" x="102.48" y="108.66" width="9.44" height="9.44" rx="1.11"/><rect class="cls-2" x="114.52" y="108.66" width="9.44" height="9.44" rx="1.11"/><rect class="cls-2" x="126.57" y="108.66" width="9.44" height="9.44" rx="1.11"/><rect class="cls-2" x="44.41" y="108.66" width="53.29" height="9.44" rx="1.11"/><rect class="cls-3" x="52.18" y="121.98" width="35.53" height="14.99" rx="2.29"/><rect class="cls-4" x="411" y="21.86" width="142.11" height="95.35" rx="2.28"/><rect class="cls-2" x="417.11" y="27.97" width="129.9" height="72.24"/><line class="cls-5" x1="452.44" y1="42.24" x2="468.73" y2="42.24"/><line class="cls-6" x1="441.83" y1="42.24" x2="441.83" y2="42.24"/><line class="cls-5" x1="452.44" y1="59.58" x2="468.73" y2="59.58"/><line class="cls-6" x1="441.83" y1="59.58" x2="441.83" y2="59.58"/><line class="cls-5" x1="452.44" y1="76.91" x2="468.73" y2="76.91"/><line class="cls-6" x1="441.83" y1="76.91" x2="441.83" y2="76.91"/><line class="cls-7" x1="478.48" y1="42.24" x2="524.23" y2="42.24"/><line class="cls-7" x1="478.48" y1="50.91" x2="514.2" y2="50.91"/><line class="cls-7" x1="478.48" y1="68.25" x2="514.2" y2="68.25"/><line class="cls-7" x1="478.48" y1="85.58" x2="514.2" y2="85.58"/><line class="cls-7" x1="478.48" y1="59.58" x2="524.23" y2="59.58"/><line class="cls-7" x1="478.48" y1="76.91" x2="524.23" y2="76.91"/><rect class="cls-4" x="470.06" y="114.21" width="24" height="25"/><path class="cls-4" d="M513.06,145.21v-4a3,3,0,0,0-3-3h-56a3,3,0,0,0-3,3v4Z"/><circle class="cls-3" cx="482.06" cy="109.71" r="3.5"/><rect class="cls-8" x="212.34" y="123.08" width="133" height="63" rx="3.06"/><rect class="cls-9" x="214.51" y="139.64" width="43.72" height="29.88" rx="1.35" transform="translate(82.51 391.42) rotate(-90.17)"/><rect class="cls-9" x="257.14" y="139.64" width="43.72" height="29.88" rx="1.35" transform="translate(125.26 434.04) rotate(-90.17)"/><rect class="cls-9" x="299.76" y="139.64" width="43.72" height="29.88" rx="1.35" transform="translate(168.01 476.67) rotate(-90.17)"/><g id="c110_arrows" data-name="c110 arrows"><path class="cls-10" d="M198,102.64c-1.11-.67-11.62-6.85-11.62-6.85s-1.41-.85-1.41.28V99l-31.64-.1v8.43h32v3.19c0,.93,1.34.07,1.34.07l11.27-7S198.8,103.13,198,102.64Z"/></g><g id="c110_arrows-2" data-name="c110 arrows"><path class="cls-10" d="M399,102.14c-1.11-.67-11.62-6.85-11.62-6.85s-1.41-.85-1.41.28v2.94l-31.64-.1v8.43h32V110c0,.93,1.34.07,1.34.07l11.27-7S399.8,102.63,399,102.14Z"/></g><path class="cls-11" d="M46.52,171H44V157.24h2.57Z"/><path class="cls-11" d="M61.17,157.24V171H59.86a1.08,1.08,0,0,1-.51-.1,1.23,1.23,0,0,1-.4-.34l-7.17-9.16c0,.42.06.81.06,1.16V171H49.59V157.24h1.34l.28,0,.21.05a.52.52,0,0,1,.17.13,1.37,1.37,0,0,1,.19.21l7.2,9.2c0-.22,0-.44,0-.66s0-.41,0-.6v-8.35Z"/><path class="cls-11" d="M68.69,157.24a7.71,7.71,0,0,1,2.39.33,4.48,4.48,0,0,1,1.66.9,3.47,3.47,0,0,1,1,1.39,4.56,4.56,0,0,1,.32,1.76,4.89,4.89,0,0,1-.33,1.83,3.78,3.78,0,0,1-1,1.43,4.57,4.57,0,0,1-1.67.93,7.42,7.42,0,0,1-2.34.33H66.78V171H64.23V157.24Zm0,6.91a3.8,3.8,0,0,0,1.23-.18,2.19,2.19,0,0,0,.87-.5,2,2,0,0,0,.51-.8,2.89,2.89,0,0,0,.18-1,2.7,2.7,0,0,0-.18-1,2,2,0,0,0-.51-.76,2.37,2.37,0,0,0-.86-.47,3.83,3.83,0,0,0-1.24-.17H66.78v4.93Z"/><path class="cls-11" d="M81.52,168.92a3.27,3.27,0,0,0,1.32-.25,2.68,2.68,0,0,0,1-.69,3.16,3.16,0,0,0,.61-1.08,4.57,4.57,0,0,0,.21-1.43v-8.23h2.56v8.23a6.23,6.23,0,0,1-.4,2.27,5.05,5.05,0,0,1-2.92,3,6.34,6.34,0,0,1-2.37.42,6.44,6.44,0,0,1-2.39-.42,5.17,5.17,0,0,1-1.79-1.18,5.1,5.1,0,0,1-1.13-1.79,6.44,6.44,0,0,1-.39-2.27v-8.23h2.55v8.22a4.29,4.29,0,0,0,.22,1.43A3,3,0,0,0,79.2,168a2.7,2.7,0,0,0,1,.7A3.29,3.29,0,0,0,81.52,168.92Z"/><path class="cls-11" d="M99.69,159.34H95.55V171H93V159.34H88.85v-2.1H99.69Z"/><path class="cls-11" d="M457.76,164.11a7.53,7.53,0,0,1-.5,2.8,6.34,6.34,0,0,1-3.6,3.69,7.31,7.31,0,0,1-2.85.53,7.22,7.22,0,0,1-2.84-.53,6.46,6.46,0,0,1-2.2-1.46,6.54,6.54,0,0,1-1.42-2.23,7.94,7.94,0,0,1,0-5.6,6.5,6.5,0,0,1,1.42-2.22,6.35,6.35,0,0,1,2.2-1.47,7.41,7.41,0,0,1,2.84-.53,7.74,7.74,0,0,1,2,.24,6.52,6.52,0,0,1,1.69.69,6.06,6.06,0,0,1,1.39,1.07,6.59,6.59,0,0,1,1,1.41,7.14,7.14,0,0,1,.65,1.69A8,8,0,0,1,457.76,164.11Zm-2.61,0a6.14,6.14,0,0,0-.31-2,4.34,4.34,0,0,0-.86-1.52,3.66,3.66,0,0,0-1.36-1,5.13,5.13,0,0,0-3.62,0,3.7,3.7,0,0,0-1.37,1,4.21,4.21,0,0,0-.87,1.52,7,7,0,0,0,0,4.06,4.12,4.12,0,0,0,.87,1.52,3.79,3.79,0,0,0,1.37,1,5,5,0,0,0,3.62,0,3.75,3.75,0,0,0,1.36-1,4.25,4.25,0,0,0,.86-1.52A6.1,6.1,0,0,0,455.15,164.11Z"/><path class="cls-11" d="M465.54,168.92a3.29,3.29,0,0,0,1.33-.25,2.64,2.64,0,0,0,1-.69,3,3,0,0,0,.61-1.08,4.29,4.29,0,0,0,.22-1.43v-8.23h2.55v8.23a6.44,6.44,0,0,1-.39,2.27,5.1,5.1,0,0,1-1.13,1.79,5.17,5.17,0,0,1-1.79,1.18,7,7,0,0,1-4.76,0,5.05,5.05,0,0,1-2.92-3,6.23,6.23,0,0,1-.4-2.27v-8.23h2.56v8.22a4.57,4.57,0,0,0,.21,1.43,3,3,0,0,0,.62,1.08,2.7,2.7,0,0,0,1,.7A3.27,3.27,0,0,0,465.54,168.92Z"/><path class="cls-11" d="M483.72,159.34h-4.15V171H477V159.34h-4.14v-2.1h10.84Z"/><path class="cls-11" d="M490,157.24a7.69,7.69,0,0,1,2.38.33,4.4,4.4,0,0,1,1.66.9,3.6,3.6,0,0,1,1,1.39,4.75,4.75,0,0,1,.31,1.76,4.89,4.89,0,0,1-.33,1.83,3.68,3.68,0,0,1-1,1.43,4.6,4.6,0,0,1-1.66.93,7.51,7.51,0,0,1-2.34.33h-1.91V171h-2.56V157.24Zm0,6.91a3.78,3.78,0,0,0,1.22-.18,2.19,2.19,0,0,0,.87-.5,2.1,2.1,0,0,0,.52-.8,3.12,3.12,0,0,0,.17-1,2.91,2.91,0,0,0-.17-1,2.1,2.1,0,0,0-.52-.76,2.29,2.29,0,0,0-.86-.47,3.81,3.81,0,0,0-1.23-.17h-1.91v4.93Z"/><path class="cls-11" d="M502.81,168.92a3.32,3.32,0,0,0,1.33-.25,2.73,2.73,0,0,0,1-.69,3.16,3.16,0,0,0,.61-1.08,4.57,4.57,0,0,0,.21-1.43v-8.23h2.56v8.23a6.44,6.44,0,0,1-.39,2.27,5,5,0,0,1-2.93,3,6.93,6.93,0,0,1-4.75,0,5,5,0,0,1-2.93-3,6.44,6.44,0,0,1-.39-2.27v-8.23h2.56v8.22a4.57,4.57,0,0,0,.21,1.43,3,3,0,0,0,.62,1.08,2.75,2.75,0,0,0,1,.7A3.32,3.32,0,0,0,502.81,168.92Z"/><path class="cls-11" d="M521,159.34h-4.14V171h-2.55V159.34h-4.15v-2.1H521Z"/><path class="cls-11" d="M270.21,21.74a.52.52,0,0,1,.37.16l1,1.09a5.42,5.42,0,0,1-2.05,1.59,7.06,7.06,0,0,1-2.93.55,6.88,6.88,0,0,1-2.75-.52,6.08,6.08,0,0,1-2.09-1.45,6.4,6.4,0,0,1-1.33-2.23,8.51,8.51,0,0,1-.46-2.82,7.79,7.79,0,0,1,.5-2.83,6.48,6.48,0,0,1,1.39-2.22A6.24,6.24,0,0,1,264,11.61a7,7,0,0,1,2.76-.52,6.89,6.89,0,0,1,2.66.49,6.31,6.31,0,0,1,2,1.3l-.85,1.18a.64.64,0,0,1-.2.2.53.53,0,0,1-.32.09.67.67,0,0,1-.3-.08l-.33-.2-.42-.26a3.13,3.13,0,0,0-.55-.26,4,4,0,0,0-.73-.2,4.49,4.49,0,0,0-.95-.08,4.39,4.39,0,0,0-1.69.32,3.65,3.65,0,0,0-1.31.95,4.43,4.43,0,0,0-.86,1.52,6.5,6.5,0,0,0-.3,2.05,6.23,6.23,0,0,0,.32,2.06,4.62,4.62,0,0,0,.89,1.52,4,4,0,0,0,1.32.95,4.07,4.07,0,0,0,1.64.33,6.65,6.65,0,0,0,.94-.06,4.46,4.46,0,0,0,.78-.18,3.51,3.51,0,0,0,.68-.32,4.39,4.39,0,0,0,.63-.48.9.9,0,0,1,.2-.14A.54.54,0,0,1,270.21,21.74Z"/><path class="cls-11" d="M277.81,11.24a7.69,7.69,0,0,1,2.38.33,4.4,4.4,0,0,1,1.66.9,3.6,3.6,0,0,1,1,1.39,4.75,4.75,0,0,1,.31,1.76,4.89,4.89,0,0,1-.33,1.83,3.68,3.68,0,0,1-1,1.43,4.52,4.52,0,0,1-1.66.93,7.51,7.51,0,0,1-2.34.33H275.9V25h-2.56V11.24Zm0,6.91A3.78,3.78,0,0,0,279,18a2.19,2.19,0,0,0,.87-.5,2.1,2.1,0,0,0,.52-.8,3.12,3.12,0,0,0,.17-1.05,2.91,2.91,0,0,0-.17-1,2.21,2.21,0,0,0-.51-.76,2.41,2.41,0,0,0-.87-.47,3.81,3.81,0,0,0-1.23-.17H275.9v4.93Z"/><path class="cls-11" d="M290.63,22.92a3.32,3.32,0,0,0,1.33-.25,2.64,2.64,0,0,0,1-.69,3.16,3.16,0,0,0,.61-1.08,4.56,4.56,0,0,0,.22-1.43V11.24h2.55v8.23a6.44,6.44,0,0,1-.39,2.27,5.25,5.25,0,0,1-1.13,1.79A5.17,5.17,0,0,1,293,24.71a6.43,6.43,0,0,1-2.38.42,6.35,6.35,0,0,1-2.38-.42,5,5,0,0,1-2.93-3,6.44,6.44,0,0,1-.39-2.27V11.24h2.56v8.22a4.57,4.57,0,0,0,.21,1.43,3,3,0,0,0,.62,1.08,2.7,2.7,0,0,0,1,.7A3.24,3.24,0,0,0,290.63,22.92Z"/><rect class="cls-12" x="211.59" y="46.28" width="133.75" height="52.52"/><polygon class="cls-13" points="217.61 36.9 216.25 36.9 215.37 46.31 218.56 46.31 217.61 36.9"/><polygon class="cls-13" points="222.96 36.9 221.6 36.9 220.72 46.31 223.91 46.31 222.96 36.9"/><polygon class="cls-13" points="228.3 36.9 226.94 36.9 226.07 46.31 229.26 46.31 228.3 36.9"/><polygon class="cls-13" points="233.65 36.9 232.29 36.9 231.41 46.31 234.6 46.31 233.65 36.9"/><polygon class="cls-13" points="239 36.9 237.64 36.9 236.76 46.31 239.95 46.31 239 36.9"/><polygon class="cls-13" points="244.34 36.9 242.99 36.9 242.11 46.31 245.3 46.31 244.34 36.9"/><polygon class="cls-13" points="249.69 36.9 248.33 36.9 247.46 46.31 250.65 46.31 249.69 36.9"/><polygon class="cls-13" points="255.04 36.9 253.68 36.9 252.8 46.31 255.99 46.31 255.04 36.9"/><polygon class="cls-13" points="260.39 36.9 259.03 36.9 258.15 46.31 261.34 46.31 260.39 36.9"/><polygon class="cls-13" points="265.73 36.9 264.38 36.9 263.5 46.31 266.69 46.31 265.73 36.9"/><polygon class="cls-13" points="271.08 36.9 269.72 36.9 268.84 46.31 272.04 46.31 271.08 36.9"/><polygon class="cls-13" points="276.43 36.9 275.07 36.9 274.19 46.31 277.38 46.31 276.43 36.9"/><polygon class="cls-13" points="281.77 36.9 280.42 36.9 279.54 46.31 282.73 46.31 281.77 36.9"/><polygon class="cls-13" points="287.12 36.9 285.76 36.9 284.89 46.31 288.08 46.31 287.12 36.9"/><polygon class="cls-13" points="292.47 36.9 291.11 36.9 290.23 46.31 293.42 46.31 292.47 36.9"/><polygon class="cls-13" points="297.82 36.9 296.46 36.9 295.58 46.31 298.77 46.31 297.82 36.9"/><polygon class="cls-13" points="303.16 36.9 301.81 36.9 300.93 46.31 304.12 46.31 303.16 36.9"/><polygon class="cls-13" points="308.51 36.9 307.15 36.9 306.27 46.31 309.47 46.31 308.51 36.9"/><polygon class="cls-13" points="313.86 36.9 312.5 36.9 311.62 46.31 314.81 46.31 313.86 36.9"/><polygon class="cls-13" points="319.21 36.9 317.85 36.9 316.97 46.31 320.16 46.31 319.21 36.9"/><polygon class="cls-13" points="324.55 36.9 323.19 36.9 322.32 46.31 325.51 46.31 324.55 36.9"/><polygon class="cls-13" points="329.9 36.9 328.54 36.9 327.67 46.31 330.86 46.31 329.9 36.9"/><polygon class="cls-13" points="335.25 36.9 333.89 36.9 333.01 46.31 336.2 46.31 335.25 36.9"/><polygon class="cls-13" points="340.6 36.9 339.24 36.9 338.36 46.31 341.55 46.31 340.6 36.9"/><polygon class="cls-13" points="339.31 108.55 340.67 108.55 341.55 99.14 338.36 99.14 339.31 108.55"/><polygon class="cls-13" points="333.97 108.55 335.32 108.55 336.2 99.14 333.01 99.14 333.97 108.55"/><polygon class="cls-13" points="328.62 108.55 329.98 108.55 330.86 99.14 327.67 99.14 328.62 108.55"/><polygon class="cls-13" points="323.27 108.55 324.63 108.55 325.51 99.14 322.32 99.14 323.27 108.55"/><polygon class="cls-13" points="317.92 108.55 319.28 108.55 320.16 99.14 316.97 99.14 317.92 108.55"/><polygon class="cls-13" points="312.58 108.55 313.94 108.55 314.81 99.14 311.62 99.14 312.58 108.55"/><polygon class="cls-13" points="307.23 108.55 308.59 108.55 309.47 99.14 306.27 99.14 307.23 108.55"/><polygon class="cls-13" points="301.88 108.55 303.24 108.55 304.12 99.14 300.93 99.14 301.88 108.55"/><polygon class="cls-13" points="296.54 108.55 297.89 108.55 298.77 99.14 295.58 99.14 296.54 108.55"/><polygon class="cls-13" points="291.19 108.55 292.55 108.55 293.42 99.14 290.23 99.14 291.19 108.55"/><polygon class="cls-13" points="285.84 108.55 287.2 108.55 288.08 99.14 284.89 99.14 285.84 108.55"/><polygon class="cls-13" points="280.49 108.55 281.85 108.55 282.73 99.14 279.54 99.14 280.49 108.55"/><polygon class="cls-13" points="275.15 108.55 276.5 108.55 277.38 99.14 274.19 99.14 275.15 108.55"/><polygon class="cls-13" points="269.8 108.55 271.16 108.55 272.04 99.14 268.84 99.14 269.8 108.55"/><polygon class="cls-13" points="264.45 108.55 265.81 108.55 266.69 99.14 263.5 99.14 264.45 108.55"/><polygon class="cls-13" points="259.1 108.55 260.46 108.55 261.34 99.14 258.15 99.14 259.1 108.55"/><polygon class="cls-13" points="253.76 108.55 255.12 108.55 255.99 99.14 252.8 99.14 253.76 108.55"/><polygon class="cls-13" points="248.41 108.55 249.77 108.55 250.65 99.14 247.46 99.14 248.41 108.55"/><polygon class="cls-13" points="243.06 108.55 244.42 108.55 245.3 99.14 242.11 99.14 243.06 108.55"/><polygon class="cls-13" points="237.72 108.55 239.07 108.55 239.95 99.14 236.76 99.14 237.72 108.55"/><polygon class="cls-13" points="232.37 108.55 233.73 108.55 234.6 99.14 231.41 99.14 232.37 108.55"/><polygon class="cls-13" points="227.02 108.55 228.38 108.55 229.26 99.14 226.07 99.14 227.02 108.55"/><polygon class="cls-13" points="221.67 108.55 223.03 108.55 223.91 99.14 220.72 99.14 221.67 108.55"/><polygon class="cls-13" points="216.33 108.55 217.68 108.55 218.56 99.14 215.37 99.14 216.33 108.55"/><path class="cls-11" d="M252.16,200.24V214h-2.25v-8.87c0-.36,0-.74.06-1.15l-4.16,7.8a1,1,0,0,1-.9.56h-.36a1,1,0,0,1-.9-.56l-4.2-7.83c0,.21,0,.41.05.62s0,.39,0,.56V214h-2.26V200.24h2.23a.79.79,0,0,1,.22.05.57.57,0,0,1,.18.12,1.52,1.52,0,0,1,.16.23l4.11,7.63a6.09,6.09,0,0,1,.3.63q.14.32.27.66c.09-.23.18-.46.28-.68a6.09,6.09,0,0,1,.3-.63l4.06-7.61a1,1,0,0,1,.16-.23l.18-.12a.78.78,0,0,1,.23-.05h2.22Z"/><path class="cls-11" d="M257.78,202.28v3.81h4.81v2h-4.81v3.89h6.1v2h-8.66V200.24h8.66v2Z"/><path class="cls-11" d="M281,200.24V214h-2.25v-8.87c0-.36,0-.74.06-1.15l-4.16,7.8a1,1,0,0,1-.9.56h-.36a1,1,0,0,1-.9-.56l-4.2-7.83c0,.21,0,.41.05.62s0,.39,0,.56V214h-2.25V200.24h2.23a.79.79,0,0,1,.22.05.57.57,0,0,1,.18.12,1.52,1.52,0,0,1,.16.23l4.11,7.63a6.09,6.09,0,0,1,.3.63q.14.32.27.66c.09-.23.18-.46.28-.68a6.09,6.09,0,0,1,.3-.63l4.06-7.61a1,1,0,0,1,.16-.23l.18-.12a.78.78,0,0,1,.23-.05H281Z"/><path class="cls-11" d="M297.2,207.11a7.74,7.74,0,0,1-.5,2.8,6.31,6.31,0,0,1-3.61,3.69,7.9,7.9,0,0,1-5.69,0,6.37,6.37,0,0,1-3.62-3.69,8.09,8.09,0,0,1,0-5.6,6.65,6.65,0,0,1,1.42-2.22,6.54,6.54,0,0,1,2.2-1.47,7.48,7.48,0,0,1,2.84-.53,7.76,7.76,0,0,1,2,.24,6.52,6.52,0,0,1,1.69.69,5.8,5.8,0,0,1,1.38,1.07,6.27,6.27,0,0,1,1,1.41,6.75,6.75,0,0,1,.66,1.69A8.56,8.56,0,0,1,297.2,207.11Zm-2.61,0a6.41,6.41,0,0,0-.31-2,4.34,4.34,0,0,0-.86-1.52,3.7,3.7,0,0,0-1.37-1,4.67,4.67,0,0,0-1.81-.33,4.75,4.75,0,0,0-1.81.33,3.66,3.66,0,0,0-1.36,1,4.21,4.21,0,0,0-.87,1.52,6.8,6.8,0,0,0,0,4.06,4.12,4.12,0,0,0,.87,1.52,3.75,3.75,0,0,0,1.36,1,4.56,4.56,0,0,0,1.81.34,4.5,4.5,0,0,0,1.81-.34,3.79,3.79,0,0,0,1.37-1,4.25,4.25,0,0,0,.86-1.52A6.36,6.36,0,0,0,294.59,207.11Z"/><path class="cls-11" d="M310.18,214h-2.31a1,1,0,0,1-.95-.51l-2.89-4.4a1,1,0,0,0-.36-.35,1.22,1.22,0,0,0-.57-.11H302V214h-2.56V200.24h4.19a8.86,8.86,0,0,1,2.4.29,4.67,4.67,0,0,1,1.64.82,3.18,3.18,0,0,1,.95,1.24,4.18,4.18,0,0,1,.3,1.6,4.39,4.39,0,0,1-.2,1.32,4.13,4.13,0,0,1-.59,1.12,4.21,4.21,0,0,1-.95.88,5.1,5.1,0,0,1-1.29.6,2.19,2.19,0,0,1,.46.34,2.52,2.52,0,0,1,.38.46Zm-6.58-7.2a4,4,0,0,0,1.26-.18,2.42,2.42,0,0,0,.88-.5,1.91,1.91,0,0,0,.52-.76,2.49,2.49,0,0,0,.17-1,1.94,1.94,0,0,0-.69-1.6,3.31,3.31,0,0,0-2.1-.56H302v4.56Z"/><path class="cls-11" d="M316.93,208.66V214h-2.55v-5.32l-5-8.42h2.25a.86.86,0,0,1,.53.16,1.3,1.3,0,0,1,.32.41L315,205.4c.15.27.28.53.39.77s.21.48.3.72a7.12,7.12,0,0,1,.28-.72c.11-.24.23-.5.37-.77l2.5-4.59a1.24,1.24,0,0,1,.31-.39.8.8,0,0,1,.54-.18h2.26Z"/></svg>